<mxfile host="app.diagrams.net" modified="2023-10-25T12:51:26.343Z" agent="Mozilla/5.0 (Macintosh; Intel Mac OS X 10_15_7) AppleWebKit/537.36 (KHTML, like Gecko) Chrome/118.0.0.0 Safari/537.36" etag="fk9t5eLvkeedQewrkRPR" version="22.0.8" type="github">
  <diagram name="Page-1" id="z9mUVyHt2lQAVW82_yQu">
    <mxGraphModel dx="956" dy="453" grid="1" gridSize="10" guides="1" tooltips="1" connect="1" arrows="1" fold="1" page="1" pageScale="1" pageWidth="827" pageHeight="1169" math="0" shadow="0">
      <root>
        <mxCell id="0" />
        <mxCell id="1" parent="0" />
        <mxCell id="Jy_a5hXC8znkebbUCEHY-1" value="Users" style="rounded=0;whiteSpace=wrap;html=1;hachureGap=4;fontFamily=Architects Daughter;fontSource=https%3A%2F%2Ffonts.googleapis.com%2Fcss%3Ffamily%3DArchitects%2BDaughter;fontSize=12;" vertex="1" parent="1">
          <mxGeometry x="10" y="160" width="120" height="60" as="geometry" />
        </mxCell>
        <mxCell id="Jy_a5hXC8znkebbUCEHY-5" value="" style="edgeStyle=orthogonalEdgeStyle;rounded=0;hachureGap=4;orthogonalLoop=1;jettySize=auto;html=1;fontFamily=Architects Daughter;fontSource=https%3A%2F%2Ffonts.googleapis.com%2Fcss%3Ffamily%3DArchitects%2BDaughter;fontSize=12;" edge="1" parent="1" source="Jy_a5hXC8znkebbUCEHY-2" target="Jy_a5hXC8znkebbUCEHY-4">
          <mxGeometry relative="1" as="geometry" />
        </mxCell>
        <mxCell id="Jy_a5hXC8znkebbUCEHY-2" value="Fargate ECS" style="ellipse;shape=doubleEllipse;whiteSpace=wrap;html=1;aspect=fixed;hachureGap=4;fontFamily=Architects Daughter;fontSource=https%3A%2F%2Ffonts.googleapis.com%2Fcss%3Ffamily%3DArchitects%2BDaughter;fontSize=12;rounded=0;" vertex="1" parent="1">
          <mxGeometry x="350" y="150" width="80" height="80" as="geometry" />
        </mxCell>
        <mxCell id="Jy_a5hXC8znkebbUCEHY-3" value="" style="endArrow=classic;html=1;fontColor=#FF3333;rounded=0;hachureGap=4;fontFamily=Architects Daughter;fontSource=https%3A%2F%2Ffonts.googleapis.com%2Fcss%3Ffamily%3DArchitects%2BDaughter;fontSize=12;" edge="1" parent="1" source="Jy_a5hXC8znkebbUCEHY-6" target="Jy_a5hXC8znkebbUCEHY-2">
          <mxGeometry width="50" height="50" relative="1" as="geometry">
            <mxPoint x="80" y="420" as="sourcePoint" />
            <mxPoint x="130" y="370" as="targetPoint" />
          </mxGeometry>
        </mxCell>
        <mxCell id="Jy_a5hXC8znkebbUCEHY-4" value="{Purpose} Dynamo DB" style="shape=partialRectangle;whiteSpace=wrap;html=1;left=0;right=0;fillColor=none;hachureGap=4;fontFamily=Architects Daughter;fontSource=https%3A%2F%2Ffonts.googleapis.com%2Fcss%3Ffamily%3DArchitects%2BDaughter;fontSize=12;rounded=0;" vertex="1" parent="1">
          <mxGeometry x="330" y="280" width="120" height="40" as="geometry" />
        </mxCell>
        <mxCell id="Jy_a5hXC8znkebbUCEHY-7" value="" style="endArrow=classic;html=1;fontColor=#FF3333;rounded=0;hachureGap=4;fontFamily=Architects Daughter;fontSource=https%3A%2F%2Ffonts.googleapis.com%2Fcss%3Ffamily%3DArchitects%2BDaughter;fontSize=12;" edge="1" parent="1" source="Jy_a5hXC8znkebbUCEHY-1" target="Jy_a5hXC8znkebbUCEHY-6">
          <mxGeometry width="50" height="50" relative="1" as="geometry">
            <mxPoint x="130" y="190" as="sourcePoint" />
            <mxPoint x="350" y="190" as="targetPoint" />
          </mxGeometry>
        </mxCell>
        <mxCell id="Jy_a5hXC8znkebbUCEHY-6" value="Description" style="text;html=1;strokeColor=none;fillColor=none;align=center;verticalAlign=middle;whiteSpace=wrap;overflow=hidden;fontSize=12;fontFamily=Architects Daughter;rounded=0;" vertex="1" parent="1">
          <mxGeometry x="200" y="175" width="70" height="30" as="geometry" />
        </mxCell>
        <mxCell id="Jy_a5hXC8znkebbUCEHY-8" value="Trust Boundary" style="html=1;fontColor=#FF3333;fontStyle=1;align=left;verticalAlign=top;spacing=0;labelBorderColor=none;fillColor=none;dashed=1;strokeWidth=2;strokeColor=#FF3333;spacingLeft=4;spacingTop=-3;hachureGap=4;fontFamily=Architects Daughter;fontSource=https%3A%2F%2Ffonts.googleapis.com%2Fcss%3Ffamily%3DArchitects%2BDaughter;fontSize=12;rounded=0;" vertex="1" parent="1">
          <mxGeometry x="290" y="110" width="530" height="410" as="geometry" />
        </mxCell>
        <mxCell id="Jy_a5hXC8znkebbUCEHY-9" value="Public API Gateway" style="ellipse;shape=doubleEllipse;whiteSpace=wrap;html=1;aspect=fixed;hachureGap=4;fontFamily=Architects Daughter;fontSource=https%3A%2F%2Ffonts.googleapis.com%2Fcss%3Ffamily%3DArchitects%2BDaughter;fontSize=12;rounded=0;" vertex="1" parent="1">
          <mxGeometry x="350" y="360" width="80" height="80" as="geometry" />
        </mxCell>
        <mxCell id="Jy_a5hXC8znkebbUCEHY-12" value="" style="rounded=0;hachureGap=4;orthogonalLoop=1;jettySize=auto;html=1;fontFamily=Architects Daughter;fontSource=https%3A%2F%2Ffonts.googleapis.com%2Fcss%3Ffamily%3DArchitects%2BDaughter;fontSize=12;" edge="1" parent="1" source="Jy_a5hXC8znkebbUCEHY-10" target="Jy_a5hXC8znkebbUCEHY-9">
          <mxGeometry relative="1" as="geometry">
            <mxPoint x="250" y="360" as="targetPoint" />
          </mxGeometry>
        </mxCell>
        <mxCell id="Jy_a5hXC8znkebbUCEHY-10" value="Trust Boundary" style="html=1;fontColor=#FF3333;fontStyle=1;align=left;verticalAlign=top;spacing=0;labelBorderColor=none;fillColor=none;dashed=1;strokeWidth=2;strokeColor=#FF3333;spacingLeft=4;spacingTop=-3;hachureGap=4;fontFamily=Architects Daughter;fontSource=https%3A%2F%2Ffonts.googleapis.com%2Fcss%3Ffamily%3DArchitects%2BDaughter;fontSize=12;rounded=0;" vertex="1" parent="1">
          <mxGeometry x="15" y="355" width="110" height="90" as="geometry" />
        </mxCell>
        <mxCell id="Jy_a5hXC8znkebbUCEHY-11" value="IPV Core" style="ellipse;shape=doubleEllipse;whiteSpace=wrap;html=1;aspect=fixed;hachureGap=4;fontFamily=Architects Daughter;fontSource=https%3A%2F%2Ffonts.googleapis.com%2Fcss%3Ffamily%3DArchitects%2BDaughter;fontSize=12;rounded=0;" vertex="1" parent="1">
          <mxGeometry x="45" y="375" width="50" height="50" as="geometry" />
        </mxCell>
        <mxCell id="Jy_a5hXC8znkebbUCEHY-13" value="Trust Boundary" style="html=1;fontColor=#FF3333;fontStyle=1;align=left;verticalAlign=top;spacing=0;labelBorderColor=none;fillColor=none;dashed=1;strokeWidth=2;strokeColor=#FF3333;spacingLeft=4;spacingTop=-3;hachureGap=4;fontFamily=Architects Daughter;fontSource=https%3A%2F%2Ffonts.googleapis.com%2Fcss%3Ffamily%3DArchitects%2BDaughter;fontSize=12;rounded=0;" vertex="1" parent="1">
          <mxGeometry x="310" y="130" width="170" height="210" as="geometry" />
        </mxCell>
      </root>
    </mxGraphModel>
  </diagram>
</mxfile>
